<svg id="Capa_1" enable-background="new 0 0 510.005 510.005" height="512" viewBox="0 0 510.005 510.005" width="512" xmlns="http://www.w3.org/2000/svg"><path d="m255.003 297.433-144.336 144.335c-1.271 1.271-1.271 3.35.001 4.621l.024.024c14.55 14.55 14.55 38.13 0 52.68-14.54 14.55-38.13 14.55-52.68 0-9.004-9.013-12.429-21.486-10.277-33.133.399-2.159-1.53-4.089-3.69-3.69-11.647 2.153-24.121-1.273-33.134-10.277-14.55-14.55-14.55-38.14 0-52.68 14.55-14.55 38.13-14.55 52.68 0l.024.024c1.27 1.272 3.35 1.273 4.621.001l144.335-144.335-144.364-144.366c-1.281-1.281-3.338-1.232-4.619.049-14.64 14.631-38.193 14.489-52.675.007-14.55-14.54-14.55-38.13 0-52.68 9.013-9.004 21.487-12.429 33.134-10.277 2.159.399 4.089-1.53 3.69-3.69-2.153-11.647 1.273-24.121 10.277-33.133 14.55-14.55 38.14-14.55 52.68 0 14.55 14.55 14.55 38.13 0 52.68l-.024.024c-1.272 1.27-1.272 3.35-.001 4.621l144.335 144.335v84.86z" fill="#918291"/><path d="m499.093 399.313c14.55 14.54 14.55 38.13 0 52.68-9.013 9.004-21.487 12.429-33.134 10.277-2.159-.399-4.089 1.53-3.69 3.69 2.153 11.647-1.273 24.121-10.277 33.133-14.55 14.55-38.14 14.55-52.68 0-14.55-14.55-14.55-38.13 0-52.68.008-.008.016-.016.024-.024 1.272-1.269 1.308-3.314.037-4.585l-144.37-144.371v-84.86l144.371-144.372c1.27-1.27 1.234-3.315-.037-4.585-.008-.008-.016-.016-.024-.024-14.55-14.55-14.55-38.13 0-52.68 14.54-14.55 38.13-14.55 52.68 0 9.004 9.012 12.429 21.486 10.277 33.133-.399 2.159 1.53 4.089 3.69 3.69 11.647-2.153 24.121 1.273 33.134 10.277 14.55 14.55 14.55 38.14 0 52.68-14.55 14.55-38.13 14.55-52.68 0-.008-.008-.016-.016-.024-.024-1.269-1.272-3.314-1.308-4.585-.038l-144.373 144.373 144.371 144.371c1.271 1.271 3.316 1.234 4.585-.038.008-.008.016-.016.024-.024 14.55-14.55 38.131-14.55 52.681.001z" fill="#685e68"/><path d="m426.385 231.614c0 44.776-17.176 85.526-45.281 116.051-11.711 12.711-18.308 29.282-18.308 46.568v11.996c0 16.076-13.03 29.106-29.106 29.106h-157.374c-16.076 0-29.106-13.03-29.106-29.106v-12.007c0-17.373-6.74-33.955-18.484-46.743-28.127-30.646-45.259-71.551-45.105-116.458.319-94.158 77.488-156.56 171.383-156.351 93.861-.001 171.381 61.831 171.381 156.944z" fill="#d7ebed"/><path d="m426.385 231.614c0 44.776-17.176 85.526-45.281 116.051-11.711 12.711-18.308 29.282-18.308 46.568v11.996c0 16.076-13.03 29.106-29.106 29.106h-78.687v-360.666c93.862 0 171.382 61.832 171.382 156.945z" fill="#b6dade"/><path d="m239.214 396.023v39.313h-31.875v-39.313c0-8.798 7.129-15.938 15.938-15.938 8.797.001 15.937 7.141 15.937 15.938z" fill="#685e68"/><path d="m302.666 396.023v39.313h-31.875v-39.313c0-8.798 7.14-15.938 15.938-15.938 8.808.001 15.937 7.141 15.937 15.938z" fill="#40383f"/><path d="m273.193 317.179c0 8.808-7.129 15.938-15.938 15.938h-4.505c-8.808 0-15.938-7.129-15.938-15.938 0-8.797 7.129-15.938 15.938-15.938h4.505c8.808 0 15.938 7.141 15.938 15.938z" fill="#685e68"/><path d="m181.602 188.207c-27.455 0-49.711 22.256-49.711 49.712 0 27.455 22.257 41.22 49.711 41.22s45.353-13.765 45.353-41.22c0-27.456-17.898-49.712-45.353-49.712z" fill="#685e68"/><g fill="#40383f"><path d="m328.403 187.003c-27.455 0-45.353 22.256-45.353 49.712 0 27.455 17.898 41.22 45.353 41.22s49.711-13.765 49.711-41.22c0-27.456-22.256-49.712-49.711-49.712z"/><path d="m273.193 317.179c0 8.808-7.129 15.938-15.938 15.938h-2.253v-31.875h2.253c8.808-.001 15.938 7.14 15.938 15.937z"/></g></svg>